<?xml version="1.0" encoding="utf-8" ?><svg xmlns="http://www.w3.org/2000/svg" xmlns:xlink="http://www.w3.org/1999/xlink" width="1024" height="1024" viewBox="0 0 1024 1024"><path fill="#2B1D40" d="M474.903 177.403C478.253 162.483 491.162 151.221 506.471 150.41C517.648 149.818 528.793 150.006 539.984 149.989L601.065 149.884L646.723 149.77C652.652 149.748 670.164 149.414 674.927 150.499C684.219 152.705 692.25 158.521 697.244 166.661C699.396 170.148 700.845 174.023 701.509 178.067C702.137 181.689 702.189 185.398 702.201 189.064C702.242 202.015 701.992 214.968 702.395 227.915C721.943 227.584 737.973 229.4 757.249 231.812C762.689 232.492 764.349 235.182 768.713 234.409C769.088 232.945 768.888 232.947 768.541 231.372L768.659 230.85C769.959 230.176 771.852 230.537 773.534 230.609C775.226 232.871 776.326 234.482 779.175 235.165C780.755 236.713 780.514 236.539 780.818 239.157C784.095 239.34 795.24 244.372 798.858 245.794C901.3 286.062 964.3 379.03 957.985 489.929C956.544 519.296 949.961 548.182 938.536 575.274C931.404 592.339 922.839 607.826 911.61 622.566C906.917 628.727 899.596 641.24 893.23 645.194C892.671 644.865 892.514 644.845 892.074 644.391L890.193 644.733C889.756 647.204 893.123 651.918 894.519 654.347C900.333 664.461 903.758 674.337 907.362 685.238C915.637 710.268 914.546 732.346 914.575 758.26C914.309 768.081 914.264 781.449 914.609 791.26C914.489 804.318 914.478 817.377 914.575 830.435C914.583 834.22 914.501 838.386 914.614 842.135C882.354 842.626 848.993 842.431 816.676 842.494L816.485 835.424C815.285 837.732 815.634 841.509 815.625 844.167C812.608 844.76 805.591 844.522 802.243 844.516L777.054 844.486C774.574 844.485 768.582 844.282 766.407 844.94C760.23 845.483 746.081 845.006 739.215 845.003L682.086 845.002L502.306 845.079L139.611 845.238L73.9853 844.775C70.7553 844.75 55.233 845.989 54.0193 843.797L54.418 842.985C56.2898 841.989 110.643 842.032 115.759 842.31L116.283 842.342C114.08 839.163 111.147 836.248 108.584 833.298C82.0954 802.79 58.1274 769.136 48.4681 729.244C42.2994 703.767 41.4767 660.945 74.5117 653.903C96.4996 649.215 117.817 662.194 135.457 673.682C135.529 662.797 135.474 654.957 142.456 645.649C150.91 634.379 162.486 633.149 175.301 631.257C162.244 618.663 140.12 606.128 139.976 586.413C139.954 583.407 141.265 576.699 140.273 575.136C139.2 574.17 139.845 574.884 139.262 574.013C136.461 569.829 132.286 566.174 128.888 562.38C78.696 506.341 67.8203 423.31 97.6314 355.142C119.767 303.461 161.472 262.652 213.622 241.645C229.852 235.276 240.234 233.655 256.955 231.045C289.179 226.016 320.98 230.095 350.92 243.466C389.002 260.473 422.284 301.483 437.243 339.926C438.476 343.224 438.605 344.263 439.135 347.709C448.545 348.136 457.724 347.831 467.059 348.779C469.495 349.234 472.552 350.117 474.792 351.235C478.505 353.266 480.844 354.591 484.282 357.011C485.868 358.63 488.575 361.232 489.899 362.928C492.568 367.022 494.048 369.632 496.086 374.108C497.494 374.271 498.143 375.166 499.218 376.174L499.576 376.13C502.27 372.484 504.281 369.97 506.769 366.099C508.437 363.027 509.87 360.115 511.395 356.968L513.2 353.628C514.363 351.612 514.964 350.648 515.778 348.5C517.463 345.733 519.185 342.972 520.747 340.135C525.266 333.354 529.713 325.754 533.858 318.711C539.389 311.498 532.835 310.509 542.05 306.535C542.626 305.631 542.455 306.152 542.183 304.819C531.454 304.11 520.53 304.673 509.741 304.381C494.901 303.981 481.073 295.431 475.931 281.181C473.53 274.524 473.715 268.753 474.015 261.824C475.956 259.605 473.062 230.765 475.567 226.663C475.447 229.716 475.112 259.467 476.015 260.854C476.515 253.924 476.093 240.298 476.096 233C476.126 216.677 476.27 200.353 476.53 184.031L476.212 181.207L475.654 181.961C475.024 181.148 475.019 178.669 474.903 177.403ZM118.136 705.142C125.285 707.412 130.426 709.325 137.125 712.869C139.343 714.043 150.21 720.934 151.019 721.114L157.821 726.06C158.685 724.111 159.593 722.477 160.604 720.611C159.937 717.596 158.767 714.307 157.795 711.332C157.312 705.713 152.061 694.752 147.115 691.528C146.526 690.706 145.638 690.149 144.806 689.502C143.41 688.259 140.485 685.684 139.593 684.276C135.038 677.089 130.92 674.248 123.821 669.72C105.08 657.763 75.5574 647.209 58.1819 667.203C48.1723 678.832 47.5148 695.881 48.8629 710.456C49.0015 712.031 49.8445 719.859 50.2319 720.866C52.4776 741.278 66.6292 772.815 79.5334 788.993C78.2476 783.892 76.1887 778.762 74.4938 773.478C68.2273 753.944 61.9985 722.486 81.2675 708.01C90.8222 700.832 104.027 702.291 115.136 704.285L118.136 705.142ZM142.608 681.327C144.812 682.57 145.221 683.368 147.381 683.326C147.187 682.498 147.247 682.554 146.953 681.892C142.881 672.72 142.219 667.487 144.062 657.763C143.22 656.269 142.454 655.061 141.519 653.622C138.145 663.264 137.703 672.025 142.608 681.327ZM144.057 577.501L143.924 578.912C147.4 580.655 145.077 585.885 145.265 589.284L145.077 590.462C144.274 592.364 144.494 591.353 144.768 593.67L145.042 594.028C149.245 599.581 147.302 599.723 149.843 604.009C152.491 601.711 147.942 591.868 147.026 587.983C147.468 586.531 147.956 580.193 148.135 578.364C146.16 577.446 146.259 577.502 144.057 577.501Z"/><path fill="#E5E5E6" d="M474.903 177.403C478.253 162.483 491.162 151.221 506.471 150.41C517.648 149.818 528.793 150.006 539.984 149.989L601.065 149.884L646.723 149.77C652.652 149.748 670.164 149.414 674.927 150.499C684.219 152.705 692.25 158.521 697.244 166.661C699.396 170.148 700.845 174.023 701.509 178.067C702.137 181.689 702.189 185.398 702.201 189.064C702.242 202.015 701.992 214.968 702.395 227.915C721.943 227.584 737.973 229.4 757.249 231.812C762.689 232.492 764.349 235.182 768.713 234.409C769.088 232.945 768.888 232.947 768.541 231.372L768.659 230.85C769.959 230.176 771.852 230.537 773.534 230.609C775.226 232.871 776.326 234.482 779.175 235.165C780.755 236.713 780.514 236.539 780.818 239.157C784.095 239.34 795.24 244.372 798.858 245.794C901.3 286.062 964.3 379.03 957.985 489.929C956.544 519.296 949.961 548.182 938.536 575.274C931.404 592.339 922.839 607.826 911.61 622.566C906.917 628.727 899.596 641.24 893.23 645.194C892.671 644.865 892.514 644.845 892.074 644.391C891.093 643.932 888.713 643.969 888.839 644.15C863.861 608.268 832.984 584.095 787.944 575.29L784.764 574.954C783.098 576.058 769.431 582.409 767.073 583.456C756.566 588.122 743.822 595.42 733.246 598.909C726.266 595.533 719.727 592.594 716.195 585.139C715.216 583.073 712.987 576.771 713.731 574.692L714.985 574.133C714.305 573.945 714.181 573.817 713.553 573.479L713.172 572.028C710.786 572.993 703.331 573.88 700.082 574.759C682.473 579.27 669.674 584.809 654.918 595.593C653.373 596.722 648.02 600.495 646.851 601.73C644.617 603.198 642.404 604.698 640.212 606.229C613.927 624.581 595.16 651.814 587.371 682.911C583.169 699.193 580.025 723.26 577.016 740.543C555.574 712.997 528.078 682.74 505.032 655.814C520.222 624.152 534.978 590.694 549.697 558.67C553.704 549.984 557.778 541.328 561.918 532.704C565.013 526.197 568.699 519.128 570.616 512.245C573.752 500.808 572.191 488.593 566.281 478.312C556.544 461.259 537.652 451.698 518.249 454.589C510.05 455.811 505.616 458.012 498.515 462.191C498.545 436.841 499.311 407.631 498.453 382.574C497.738 379.381 497.091 377.224 496.086 374.108C497.494 374.271 498.143 375.166 499.218 376.174L499.576 376.13C502.27 372.484 504.281 369.97 506.769 366.099C508.437 363.027 509.87 360.115 511.395 356.968L513.2 353.628C514.363 351.612 514.964 350.648 515.778 348.5C517.463 345.733 519.185 342.972 520.747 340.135C525.266 333.354 529.713 325.754 533.858 318.711C539.389 311.498 532.835 310.509 542.05 306.535C542.626 305.631 542.455 306.152 542.183 304.819C531.454 304.11 520.53 304.673 509.741 304.381C494.901 303.981 481.073 295.431 475.931 281.181C473.53 274.524 473.715 268.753 474.015 261.824C475.956 259.605 473.062 230.765 475.567 226.663C475.447 229.716 475.112 259.467 476.015 260.854C476.515 253.924 476.093 240.298 476.096 233C476.126 216.677 476.27 200.353 476.53 184.031L476.212 181.207L475.654 181.961C475.024 181.148 475.019 178.669 474.903 177.403Z"/><path fill="#FE5168" d="M474.903 177.403C478.253 162.483 491.162 151.221 506.471 150.41C517.648 149.818 528.793 150.006 539.984 149.989L601.065 149.884L646.723 149.77C652.652 149.748 670.164 149.414 674.927 150.499C684.219 152.705 692.25 158.521 697.244 166.661C699.396 170.148 700.845 174.023 701.509 178.067C702.137 181.689 702.189 185.398 702.201 189.064C702.242 202.015 701.992 214.968 702.395 227.915C702.324 236.556 702.322 245.198 702.388 253.839C702.458 268.77 703.905 282.843 692.425 294.312C688.111 298.566 682.746 301.6 676.877 303.105C670.747 304.666 664.982 304.306 658.735 304.335C642.986 304.408 627.074 304.022 611.341 304.477C608.48 308.162 588.974 328.4 585.476 330.841C580.641 331.115 562.014 309.32 557.179 304.543C554.612 304.498 543.955 304.095 542.183 304.819C531.454 304.11 520.53 304.673 509.741 304.381C494.901 303.981 481.073 295.431 475.931 281.181C473.53 274.524 473.715 268.753 474.015 261.824C475.956 259.605 473.062 230.765 475.567 226.663C475.447 229.716 475.112 259.467 476.015 260.854C476.515 253.924 476.093 240.298 476.096 233C476.126 216.677 476.27 200.353 476.53 184.031L476.212 181.207L475.654 181.961C475.024 181.148 475.019 178.669 474.903 177.403Z"/><path fill="#34234C" d="M474.903 177.403C478.253 162.483 491.162 151.221 506.471 150.41C517.648 149.818 528.793 150.006 539.984 149.989L601.065 149.884L646.723 149.77C652.652 149.748 670.164 149.414 674.927 150.499C684.219 152.705 692.25 158.521 697.244 166.661C699.396 170.148 700.845 174.023 701.509 178.067C702.137 181.689 702.189 185.398 702.201 189.064C702.242 202.015 701.992 214.968 702.395 227.915C702.324 236.556 702.322 245.198 702.388 253.839C702.458 268.77 703.905 282.843 692.425 294.312C688.111 298.566 682.746 301.6 676.877 303.105C670.747 304.666 664.982 304.306 658.735 304.335C642.986 304.408 627.074 304.022 611.341 304.477C608.48 308.162 588.974 328.4 585.476 330.841C580.641 331.115 562.014 309.32 557.179 304.543C554.612 304.498 543.955 304.095 542.183 304.819C531.454 304.11 520.53 304.673 509.741 304.381C494.901 303.981 481.073 295.431 475.931 281.181C473.53 274.524 473.715 268.753 474.015 261.824C475.956 259.605 473.062 230.765 475.567 226.663C475.447 229.716 475.112 259.467 476.015 260.854C477.03 273.24 475.54 281.238 485.664 291.564C497.645 303.784 513.451 301.758 529.329 301.633L558.208 301.477C566.713 309.993 576.058 320.208 584.485 328.22C593.037 319.686 601.837 310.289 610.1 301.476C622.194 301.373 637.126 301.004 649.579 301.536C672.125 303.485 696.511 299.128 698.963 272C700.129 259.102 699.231 242.836 699.208 229.491L699.147 200.357C699.116 188.719 700.452 177.912 693.848 167.583C681.806 148.747 660.255 152.454 640.168 152.585L584.293 152.896C568.062 152.925 551.832 152.841 535.602 152.645C521.246 152.543 502.026 150.379 490.101 159.22C481.703 165.446 478.159 173.976 476.53 184.031L476.212 181.207L475.654 181.961C475.024 181.148 475.019 178.669 474.903 177.403Z"/><path fill="#FEFEFE" d="M643.596 209.619C652.834 208.109 661.558 214.342 663.123 223.571C664.688 232.8 658.507 241.56 649.288 243.181C639.99 244.816 631.138 238.571 629.56 229.263C627.981 219.955 634.279 211.141 643.596 209.619Z"/><path fill="#FEFEFE" d="M584.231 209.673C593.287 207.979 602.042 213.82 603.955 222.833C605.868 231.846 600.241 240.739 591.276 242.87C585.281 244.295 578.985 242.359 574.826 237.812C570.668 233.265 569.3 226.821 571.253 220.977C573.207 215.133 578.174 210.806 584.231 209.673Z"/><path fill="#FEFEFE" d="M524.353 209.757C530.291 208.319 536.542 210.195 540.707 214.665C544.872 219.135 546.302 225.503 544.449 231.325C542.595 237.146 537.747 241.515 531.764 242.755C522.726 244.627 513.855 238.907 511.832 229.9C509.809 220.894 515.382 211.93 524.353 209.757Z"/><path fill="#2B1D40" d="M692.859 466.803C683.595 464.766 677.596 462.593 669.534 457.104C661.12 451.766 650.453 439.754 649.148 429.403C645.57 401.021 690.814 391.484 710.705 388.504C729.48 385.691 747.951 386.403 762.905 398.299C773.683 406.872 778.397 415.295 780.113 428.569C780.733 428.786 781.349 429.018 781.959 429.263C798.794 436.074 795.011 457.143 789.119 470.344L788.59 471.613C811.141 486.5 789.148 513.54 771.668 504.671C772.396 506.423 772.22 505.906 773.959 507.214C773.557 509.095 773.596 509.281 773.619 511.244C778.667 529.957 780.433 555.802 784.764 574.954C783.098 576.058 769.431 582.409 767.073 583.456C756.566 588.122 743.822 595.42 733.246 598.909C726.266 595.533 719.727 592.594 716.195 585.139C715.216 583.073 712.987 576.771 713.731 574.692L714.985 574.133C714.305 573.945 714.181 573.817 713.553 573.479L713.172 572.028C715.201 559.929 716.21 547.726 718.461 535.519C693.426 522.135 690.77 492.065 692.859 466.803Z"/><path fill="#FC9491" d="M696.005 466.662C714.62 466.092 748.8 455.693 766.315 448.71C769.541 457.255 771.166 465.706 772.952 474.602C778.698 470.018 781.314 469.26 788.59 471.613C811.141 486.5 789.148 513.54 771.668 504.671C771.2 504.025 769.183 503.013 768.35 502.531C757.831 526.197 728.703 549.554 706.927 521.889C695.218 507.014 693.365 484.971 696.005 466.662Z"/><path fill="#34234C" d="M780.012 481.605C783.146 481.144 788.216 480.885 789.272 484.6C787.51 486.027 783.455 483.166 778.507 485.945C776.701 489.212 778.454 490.153 777.228 492.208L776.189 492.335L775.086 491.318C773.16 486.396 776.045 483.868 780.012 481.605Z"/><path fill="#FC9491" d="M773.619 511.244C778.667 529.957 780.433 555.802 784.764 574.954C783.098 576.058 769.431 582.409 767.073 583.456C756.566 588.122 743.822 595.42 733.246 598.909C726.266 595.533 719.727 592.594 716.195 585.139C715.216 583.073 712.987 576.771 713.731 574.692L714.985 574.133C717.008 572.173 719.977 542.574 721.092 537.021C731.324 540.857 738.704 541.565 749.068 537.066C760.779 531.983 768.921 523.029 773.619 511.244Z"/><path fill="#34234C" d="M789.119 470.344C811.747 483.779 792.376 514.686 773.959 507.214C772.22 505.906 772.396 506.423 771.668 504.671C789.148 513.54 811.141 486.5 788.59 471.613L789.119 470.344Z"/><path fill="#2B1D40" d="M779.175 235.165C780.755 236.713 780.514 236.539 780.818 239.157C780.055 242.295 780.759 248.729 778.533 250.933L777.639 250.861L777.037 250.003C777.069 246.258 777.198 238.115 779.175 235.165Z"/><path fill="#FEFEFE" d="M496.086 374.108C497.494 374.271 498.143 375.166 499.218 376.174L499.576 376.13L502.245 374.685C502.366 375.005 502.487 375.324 502.608 375.644C501.578 377.598 499.751 380.742 498.453 382.574C497.738 379.381 497.091 377.224 496.086 374.108Z"/><path fill="#2B1D40" d="M902.809 515.92C905.321 516.276 914.015 520.559 916.152 522.304L916.284 523.781C913.194 525.417 907.078 520.956 904.367 519.29C902.856 518.362 903.008 517.459 902.809 515.92Z"/><path fill="#2B1D40" d="M879.724 503.416C881.787 503.804 889.935 507.527 891.136 509.518C891.615 510.311 891.267 510.511 890.965 511.724C888.233 511.29 880.797 507.914 879.222 505.482C878.885 504.963 879.488 504.01 879.724 503.416Z"/><path fill="#2B1D40" d="M891.92 519.303C894.903 520.888 894.458 522.334 892.819 525.017C891.458 527.247 889.869 529.505 888.447 531.715C887.516 531.166 887.448 531.077 886.609 530.393C886.127 528.408 890.491 522.061 891.92 519.303Z"/><path fill="#2B1D40" d="M906.599 497.247L907.618 498.184C907.897 501.244 903.399 506.626 901.425 509.126C900.81 508.467 900.221 508.133 900.243 507.423C900.333 504.514 904.696 499.334 906.599 497.247Z"/><path fill="#00B5F3" d="M713.172 572.028L713.553 573.479C714.181 573.817 714.305 573.945 714.985 574.133L713.731 574.692C712.987 576.771 715.216 583.073 716.195 585.139C719.727 592.594 726.266 595.533 733.246 598.909C743.822 595.42 756.566 588.122 767.073 583.456C769.431 582.409 783.098 576.058 784.764 574.954L787.944 575.29C832.984 584.095 863.861 608.268 888.839 644.15C888.713 643.969 891.093 643.932 892.074 644.391L890.193 644.733C889.756 647.204 893.123 651.918 894.519 654.347C900.333 664.461 903.758 674.337 907.362 685.238C915.637 710.268 914.546 732.346 914.575 758.26C914.309 768.081 914.264 781.449 914.609 791.26C914.489 804.318 914.478 817.377 914.575 830.435C914.583 834.22 914.501 838.386 914.614 842.135C882.354 842.626 848.993 842.431 816.676 842.494L816.485 835.424C815.031 796.544 814.484 757.487 813.269 718.58C813.205 716.524 813.296 713.954 811.947 712.727L811.22 713.027C809.26 716.907 810.818 748.099 810.958 754.505L813.132 842.382L594.498 842.132C596.808 827.544 598.575 812.336 600.529 797.678C604.028 773.019 607.205 748.316 610.061 723.575C613.888 690.755 609.856 673.104 622.88 640.408C626.973 630.275 632.347 620.707 638.871 611.938C641.14 608.859 645.111 604.852 646.851 601.73C648.02 600.495 653.373 596.722 654.918 595.593C669.674 584.809 682.473 579.27 700.082 574.759C703.331 573.88 710.786 572.993 713.172 572.028Z"/><path fill="#FE5168" d="M713.172 572.028L713.553 573.479C714.181 573.817 714.305 573.945 714.985 574.133L713.731 574.692C712.987 576.771 715.216 583.073 716.195 585.139C719.727 592.594 726.266 595.533 733.246 598.909C743.822 595.42 756.566 588.122 767.073 583.456C769.431 582.409 783.098 576.058 784.764 574.954L787.944 575.29C783.658 589.544 779.115 603.704 775.048 618.016C769.686 615.885 737.27 603.323 734.479 601.414L733.506 601.003L731.765 602.05C727.409 604.105 718.471 607.095 713.609 608.872C707.025 611.277 697.608 615.129 691.055 616.948C693.863 603.086 696.795 588.473 700.082 574.759C703.331 573.88 710.786 572.993 713.172 572.028Z"/><path fill="#131D3D" d="M731.765 602.05L733.506 601.003L734.479 601.414C730.029 631.446 723.468 661.25 718.708 691.222C718.493 692.577 718.225 692.962 717.332 693.844C716.653 693.421 715.88 693.262 715.741 692.417C715.22 689.265 729.995 608.439 731.765 602.05Z"/><path fill="#2B1D40" d="M709.659 709.765C712.527 709.017 715.576 709.891 717.611 712.047C719.647 714.202 720.346 717.296 719.435 720.117C718.524 722.938 716.148 725.039 713.236 725.597C708.934 726.422 704.753 723.685 703.787 719.412C702.822 715.139 705.42 710.87 709.659 709.765Z"/><path fill="#E5E5E6" d="M140.273 575.136C139.2 574.17 139.845 574.884 139.262 574.013C136.461 569.829 132.286 566.174 128.888 562.38C78.696 506.341 67.8203 423.31 97.6314 355.142C119.767 303.461 161.472 262.652 213.622 241.645C229.852 235.276 240.234 233.655 256.955 231.045C289.179 226.016 320.98 230.095 350.92 243.466C389.002 260.473 422.284 301.483 437.243 339.926C438.476 343.224 438.605 344.263 439.135 347.709C433.914 348.895 409.37 347.958 402.49 347.927C371.657 347.732 340.823 347.691 309.99 347.805L273.434 347.721C250.424 347.775 230.77 345.257 215.997 366.753C206.268 380.908 208.971 397.177 208.993 413.694L209.474 485.046C203.954 480.473 197.376 475.049 192.253 470.061C180.428 458.548 171.6 448.962 153.614 450.661C143.918 451.556 135.001 456.351 128.91 463.947C120.391 474.569 117.886 491.876 126.785 503.455C134.675 513.722 148.068 522.593 157.457 531.772C164.716 538.256 172.605 545.716 180.04 551.539C164.059 551.714 153.43 554.798 144.217 568.817C142.823 570.937 142.326 573.989 140.273 575.136Z"/><path fill="#2B1D40" d="M293.104 264.847C296.501 265.073 303.214 269.482 305.704 271.861L305.658 273.441C303.66 274.181 299.356 271.18 297.518 270.029C294.719 268.276 293.7 267.956 293.104 264.847Z"/><path fill="#2B1D40" d="M316.637 279.77C318.683 280.156 326.211 284.492 327.702 286.531C328.244 287.271 327.85 287.593 327.545 288.87C324.857 288.083 317.75 283.677 316.202 281.254L316.637 279.77Z"/><path fill="#2B1D40" d="M306.713 282.248L308.04 282.797L308.255 283.943C307.239 286.765 303.591 291.637 301.747 294.308C300.894 293.991 301.072 293.999 300.331 293.383C300.004 290.711 304.916 284.732 306.713 282.248Z"/><path fill="#2B1D40" d="M321.505 259.67C322.262 259.971 322.17 260.006 322.829 260.538C322.914 263.039 318.324 267.938 316.436 271.274L316.089 271.898C315.066 271.279 315.365 271.505 314.472 270.599C315.036 266.881 319.025 262.715 321.505 259.67Z"/><path fill="#FEFEFE" d="M242.287 385.673C251.672 385.271 262.852 385.543 272.341 385.539L329.075 385.689L446.514 385.56C462.259 385.506 473.769 384.237 485.749 396.314C490.813 401.393 494.078 407.988 495.046 415.095C496.052 422.759 495.459 442.907 495.463 451.501L495.492 524.595L495.379 785.302C458.388 785.905 419.277 785.534 382.25 785.189L301.805 785.307C287.694 785.335 270.725 785.768 256.809 785.153C247.563 774.671 228.572 758.517 217.617 748.369C221.506 749.184 225.06 749.643 229.032 749.445C237.587 749.076 245.636 745.292 251.379 738.94C257.375 732.359 260.454 723.633 259.916 714.746C259.08 700.558 250.579 693.977 240.83 685.119C232.524 677.572 224.07 670.212 215.661 662.783C228.653 664.637 240.762 662.323 249.99 652.196C255.905 645.704 259.136 636.507 258.471 627.716C257.998 622.108 256.081 616.718 252.908 612.07C249.579 607.255 240.969 600.242 236.305 596.143C228.502 589.203 220.613 582.361 212.639 575.619C212.304 537.48 212.246 499.339 212.468 461.2L212.448 429.089C212.447 418.202 210.818 408.485 218.084 399.523C224.863 391.161 231.601 387.068 242.287 385.673Z"/><path fill="#00B5F3" d="M351.813 616.262C379.707 613.851 404.256 634.55 406.593 662.451C408.929 690.351 388.164 714.845 360.258 717.107C332.456 719.36 308.075 698.69 305.748 670.895C303.42 643.1 324.024 618.664 351.813 616.262Z"/><path fill="#FEFEFE" d="M381.051 640.423C382.455 641.297 383.112 641.954 383.575 643.33C381.04 647.965 345.482 682.515 339.447 687.961C335.277 684.424 330.132 678.987 326.482 674.941C324.706 672.781 323.626 672.111 324.043 669.301C327.243 666.017 336.8 678.704 339.144 681.337C343.081 677.957 347.201 673.029 351.019 669.354C360.498 660.23 371.02 648.619 381.051 640.423Z"/><path fill="#2B1D40" d="M356.327 448.311C357.953 449.904 370.142 480.701 371.85 484.863C385.622 486.417 399.411 487.803 413.217 489.021C403.379 497.529 391.298 506.354 380.799 514.138C384.268 527.234 386.609 538.773 389.642 551.708C380.936 547.063 364.402 536.98 356.357 531.415C354.834 531.643 324.492 550.24 321.5 552.304C324.564 539.221 326.605 527.592 330.111 514.187C325.831 510.037 305.177 492.768 300.649 489.712C311.645 487.599 329.574 486.155 341.002 484.9C344.316 475.33 351.758 457.039 356.327 448.311Z"/><path fill="#00B5F3" d="M259.227 519.203C261.864 520.815 269.037 537.685 270.562 541.397C278.621 542.521 287.978 543.409 295.85 544.897C291 551.093 282.177 556.285 277.874 562.289C275.463 565.653 280.459 584.027 281.403 588.57C275.663 585.937 263.709 579.212 258.475 575.962C251.617 579.785 242.262 584.921 236.108 589.428C236.72 580.179 238.712 572.742 240.784 563.719C235.811 557.675 227.749 550.941 221.885 544.593C230.561 543.629 239.244 542.735 247.934 541.91C251.759 534.706 254.265 526.011 259.227 519.203Z"/><path fill="#00B5F3" d="M451.577 520.422C453.999 523.909 460.143 537.883 462.916 543.179C471.483 543.786 478.925 544.956 487.396 546.298C481.034 552.233 474.434 557.881 468.013 563.763C470.095 571.457 472.872 581.114 473.929 588.949C467.184 586.085 457.673 580.372 451.062 576.607C443.803 580.581 435.879 585.077 428.324 588.34C429.747 579.461 431.198 571.828 433.044 562.972L413.412 546.135C421.617 545.295 432.147 544.264 440.118 542.773C443.6 537.896 448.437 526.453 451.577 520.422Z"/><path fill="#FE5168" d="M498.359 640.976C498.579 645.248 497.755 652.803 499.356 655.85C500.05 656.349 500.849 656.961 501.565 657.4C506.874 662.096 518.068 675.799 523.322 681.793C541.51 702.419 559.309 723.383 576.71 744.676C574.141 755.925 571.956 773.788 570.052 785.583C567.24 802.994 562.622 825.065 561.299 842.321C545.668 842.188 530.036 842.159 514.405 842.234C501.235 842.313 487.134 842.626 474.039 841.987C497.638 828.21 497.844 814.879 497.994 789.952L498.084 761.251C498.099 722.26 497.157 679.692 498.359 640.976Z"/><path fill="#FC9491" d="M498.303 466.251C508.075 458.867 518.705 455.767 530.962 457.447C542.873 459.147 553.591 465.588 560.684 475.306C579.704 501.05 562.355 524.6 550.937 549.192L515.698 625.949C511.585 635.124 504.82 648.49 501.565 657.4C500.849 656.961 500.05 656.349 499.356 655.85C497.755 652.803 498.579 645.248 498.359 640.976L498.303 466.251Z"/><path fill="#FC9491" d="M155.802 639.268C162.133 634.969 177.16 634.247 183.118 638.79C191.89 645.479 200.758 654.143 209.041 661.503L237.436 686.57C248.906 696.886 259.391 704.251 256.35 722.031C254.869 730.691 249.736 736.653 242.849 741.83C235.933 747.028 219.363 748.251 212.487 742.72C194.162 727.982 176.135 711.521 158.452 695.92C157.651 695.209 153.762 691.949 153.403 691.408C148.876 689.098 145.302 685.592 142.608 681.327C144.812 682.57 145.221 683.368 147.381 683.326C147.187 682.498 147.247 682.554 146.953 681.892C142.881 672.72 142.219 667.487 144.062 657.763C143.22 656.269 142.454 655.061 141.519 653.622C145.26 646.973 148.466 642.43 155.802 639.268Z"/><path fill="#FEFEFE" d="M141.519 653.622C145.26 646.973 148.466 642.43 155.802 639.268L155.955 639.987C152.857 642.763 147.294 647.362 145.796 651.367C145.384 652.468 144.612 656.059 144.062 657.763C143.22 656.269 142.454 655.061 141.519 653.622Z"/><path fill="#FEFEFE" d="M142.608 681.327C144.812 682.57 145.221 683.368 147.381 683.326L147.815 683.029C148.998 684.657 152.9 689.762 153.403 691.408C148.876 689.098 145.302 685.592 142.608 681.327Z"/><path fill="#FC9491" d="M171.129 724.607C188.22 722.655 191.435 729.135 203.323 739.776C219.494 754.251 236.239 769.061 251.616 784.386C253.91 786.672 255.423 790.901 256.321 794.026C258.585 801.925 257.536 810.406 253.415 817.516C248.465 826.078 241.397 830.738 232.004 833.214C226.492 833.994 217.434 832.725 213.063 829.391C202.993 821.71 192.753 812.283 183.183 803.786C174.138 794.561 160.588 786.228 152.651 776.167C136.726 755.978 146.536 729.885 171.129 724.607Z"/><path fill="#FC9491" d="M164.419 556.779C170.328 554.519 179.518 554.739 185.427 557.115C190.073 558.984 241.145 603.653 247.978 611.127C250.313 613.681 252.218 616.84 253.481 620.062C256.395 627.493 255.99 635.25 252.641 642.432C249.07 650.09 242.807 655.457 234.864 658.242C228.242 660.564 218.953 661.221 212.46 658.079C209.674 656.73 206.987 654.755 204.592 652.806C194.309 644.435 184.815 634.945 174.839 626.197C166.851 619.193 156.455 612.203 149.843 604.009C152.491 601.711 147.942 591.868 147.026 587.983C147.468 586.531 147.956 580.193 148.135 578.364C146.16 577.446 146.259 577.502 144.057 577.501C147.177 567.076 154.106 559.982 164.419 556.779Z"/><path fill="#FEFEFE" d="M144.057 577.501C147.177 567.076 154.106 559.982 164.419 556.779C162.675 558.47 160.859 559.556 158.953 561.018C152.61 565.884 150.229 570.898 148.135 578.364C146.16 577.446 146.259 577.502 144.057 577.501Z"/><path fill="#FC9491" d="M137.782 509.752C128.826 503.259 123.19 494.296 124.382 482.746C125.291 474.337 129.485 466.628 136.051 461.297C144.641 454.354 152.959 453.585 163.443 454.638C177.034 457.517 184.664 467.057 194.463 476.184C199.343 480.678 204.328 485.056 209.416 489.315C209.582 516.919 209.465 544.525 209.066 572.128C191.914 555.975 172.167 541.799 155.161 525.304C150.286 520.575 141.99 514.831 137.782 509.752Z"/><path fill="#FEFEFE" d="M137.782 509.752C128.826 503.259 123.19 494.296 124.382 482.746C125.291 474.337 129.485 466.628 136.051 461.297C144.641 454.354 152.959 453.585 163.443 454.638L162.913 455.29C152.902 456.174 144.401 459.33 137.831 467.302C132.665 473.692 130.222 481.858 131.029 490.034C131.678 496.624 137.702 507.937 137.782 509.752Z"/><path fill="#FEFEFE" fill-opacity="0.12941177" d="M50.2319 720.866C49.8445 719.859 49.0015 712.031 48.8629 710.456C47.5148 695.881 48.1723 678.832 58.1819 667.203C75.5574 647.209 105.08 657.763 123.821 669.72C130.92 674.248 135.038 677.089 139.593 684.276C140.485 685.684 143.41 688.259 144.806 689.502C143.961 690.1 142.744 691.031 141.873 691.5L141.079 691.321C138.81 690.795 136.246 689.549 134.145 689.75C134.543 692.011 138.27 692.352 137.151 694.238C135.858 696.418 130.137 696.376 129.013 698.18C127.106 701.244 128.46 704.354 124.989 706.294C122.912 705.94 123.004 705.972 121.189 704.901L121.333 703.776C120.037 704.714 119.8 705.074 118.136 705.142L115.136 704.285L115.869 703.671C113.24 695.085 95.4371 692.893 87.9268 695.622C79.1034 698.83 75.6456 706.7 71.2577 714.155C68.6636 718.371 65.1667 721.921 63.3457 727.024C62.899 728.276 62.3033 729.433 61.3117 730.337C57.2009 730.1 56.5946 726.295 55.3627 722.9C54.0851 722.088 51.7779 720.304 50.5412 720.271L50.2319 720.866Z"/><path fill="#FEFEFE" fill-opacity="0.59607846" d="M118.136 705.142C119.8 705.074 120.037 704.714 121.333 703.776L121.189 704.901C123.004 705.972 122.912 705.94 124.989 706.294C128.46 704.354 127.106 701.244 129.013 698.18C130.137 696.376 135.858 696.418 137.151 694.238C138.27 692.352 134.543 692.011 134.145 689.75C136.246 689.549 138.81 690.795 141.079 691.321L141.873 691.5C142.922 693.496 147.945 699.92 150.436 698.795C150.707 695.305 147.965 694.588 147.115 691.528C152.061 694.752 157.312 705.713 157.795 711.332C156.818 717.253 151.568 718.451 151.019 721.114C150.21 720.934 139.343 714.043 137.125 712.869C130.426 709.325 125.285 707.412 118.136 705.142Z"/><path fill="#FEFEFE" d="M86.9357 718.36C88.9063 719.268 95.7775 725.985 97.3737 727.71C124.116 756.62 145.057 791.422 163.43 826.095C165.512 830.024 170.686 839.383 169.483 843.079C167.426 841.276 165.604 836.633 164.325 833.948C155.626 815.828 145.783 798.281 134.855 781.411C127.968 770.663 120.055 759.144 112.327 748.949C104.245 738.285 95.0284 729.277 85.7504 719.792L86.9357 718.36Z"/><path fill="#FEFEFE" fill-opacity="0.42745098" d="M141.519 653.622C142.454 655.061 143.22 656.269 144.062 657.763C142.219 667.487 142.881 672.72 146.953 681.892C147.247 682.554 147.187 682.498 147.381 683.326C145.221 683.368 144.812 682.57 142.608 681.327C137.703 672.025 138.145 663.264 141.519 653.622Z"/><path fill="#FEFEFE" d="M338.796 367.126C343.51 366.926 373.27 366.138 375.287 367.787L375.495 369.968C364.048 369.875 350.798 370.382 339.509 369.844C338.652 368.923 338.931 368.724 338.796 367.126Z"/><path fill="#FEFEFE" fill-opacity="0.0078431377" d="M147.026 587.983C147.942 591.868 152.491 601.711 149.843 604.009C147.302 599.723 149.245 599.581 145.042 594.028L144.768 593.67C144.494 591.353 144.274 592.364 145.077 590.462L145.265 589.284L147.026 587.983Z"/><path fill="#FEFEFE" fill-opacity="0.50196081" d="M144.806 689.502C145.638 690.149 146.526 690.706 147.115 691.528C147.965 694.588 150.707 695.305 150.436 698.795C147.945 699.92 142.922 693.496 141.873 691.5C142.744 691.031 143.961 690.1 144.806 689.502Z"/><path fill="#FEFEFE" fill-opacity="0.88235295" d="M144.057 577.501C146.259 577.502 146.16 577.446 148.135 578.364C147.956 580.193 147.468 586.531 147.026 587.983L145.265 589.284C145.077 585.885 147.4 580.655 143.924 578.912L144.057 577.501Z"/><path fill="#FEFEFE" d="M143.924 578.912C147.4 580.655 145.077 585.885 145.265 589.284L145.077 590.462L144.095 590.717C142.557 588.279 143.402 581.75 143.924 578.912Z"/><defs><linearGradient id="gradient_0" gradientUnits="userSpaceOnUse" x1="951.08057" y1="786.42999" x2="904.74139" y2="830.81073"><stop offset="0" stop-color="#FFFFFE" stop-opacity="0.1882353"/><stop offset="1" stop-color="#FFFFFE" stop-opacity="0.9254902"/></linearGradient></defs><path fill="url(#gradient_0)" d="M916.396 763.38C916.173 760.391 915.598 755.33 918.806 753.603C920.458 753.965 919.801 753.564 920.885 754.783L920.407 755.184C919.847 755.66 919.541 755.952 919.034 756.466C919.018 757.02 918.98 766.631 918.78 766.319C922.873 772.708 927.468 779.077 931.723 785.389C942.259 795.111 964.907 805.623 968.074 819.547C968.692 822.265 965.497 827.11 965.848 831.963C966.778 831.072 966.526 830.761 966.788 829.16L966.493 828.544L970.863 824.072L970.86 824.216C971.962 822.746 974.539 819.497 975.26 818.011C977.328 820.972 969.517 831.208 967.699 834.734C965.359 835.902 961.791 837.221 960.179 838.923L959.8 840.265L960.697 841.631L961.612 841.843C946.806 842.535 929.702 842.039 914.614 842.135C914.501 838.386 914.583 834.22 914.575 830.435C916.063 831.353 915.297 831.174 916.897 831.186C916.677 826.552 918.185 822.085 917.759 818.093C917.647 812.785 917.612 806.557 916.56 801.376C915.958 792.035 918.94 781.185 917.029 771.303C916.465 768.385 917.662 767.104 916.396 763.38Z"/><defs><linearGradient id="gradient_1" gradientUnits="userSpaceOnUse" x1="892.42456" y1="846.27197" x2="892.60449" y2="840.25885"><stop offset="0" stop-color="#232333" stop-opacity="0.98431373"/><stop offset="1" stop-color="#2F1E52"/></linearGradient></defs><path fill="url(#gradient_1)" d="M766.407 844.94C768.582 844.282 774.574 844.485 777.054 844.486L802.243 844.516C805.591 844.522 812.608 844.76 815.625 844.167C815.634 841.509 815.285 837.732 816.485 835.424L816.676 842.494C848.993 842.431 882.354 842.626 914.614 842.135C929.702 842.039 946.806 842.535 961.612 841.843C964.683 841.858 967.586 841.607 970.113 843.612L969.758 844.553C965.363 845.533 952.66 845.187 947.575 845.18L904.973 845.102L819.113 845.05C802.092 845.076 783.324 845.425 766.407 844.94Z"/><path fill="#FEFEFE" fill-opacity="0.57254905" d="M484.298 352.881C484.907 350.932 485.57 350.066 486.821 348.532C487.939 347.949 488.448 347.729 489.472 347.99C492.936 348.871 516.867 332.981 516.401 342.273C515.533 342.096 516.003 342.142 514.986 342.183C516.323 345.683 516.196 344.911 515.778 348.5C514.964 350.648 514.363 351.612 513.2 353.628C513.215 351.304 513.593 351.498 512.516 349.955C510.458 349.833 507.52 352.479 505.673 353.931L504.768 356.038L504.469 356.086L503.937 353.963C502.88 355.232 503.724 357.263 504.187 358.748L504.179 358.356C505.139 364.682 503.605 369.119 498.993 373.704L498.199 373.872C497.1 370.992 496.47 368.783 495.636 365.827C494.613 366 495.108 365.856 494.18 366.855C494.033 364.774 494.489 365.246 493.469 364.292L492.602 364.669L492.604 364.68L493.616 364.355L492.743 364.935C492.864 364.311 492.751 364.656 493.178 363.936L492.708 363.453L493.354 362.389L493.715 361.726C493.286 360.528 493.52 360.89 492.75 359.912C487.169 362.298 489.821 351.218 484.298 352.881Z"/><path fill="#FEFEFE" fill-opacity="0.33725491" d="M474.792 351.235C476.892 349.179 475.964 349.832 479.498 349.172C479.91 347.625 480.012 346.929 480.237 345.377C482.001 342.603 488.912 342.789 492.15 341.196C497.476 338.574 498.965 334.252 504.693 331.775L504.441 332.207C508.159 330.721 513.179 329.781 516.598 332.48C517.314 333.867 517.663 334.569 518.775 335.723C520.9 338.136 520.756 337.236 520.747 340.135C519.185 342.972 517.463 345.733 515.778 348.5C516.196 344.911 516.323 345.683 514.986 342.183C516.003 342.142 515.533 342.096 516.401 342.273C516.867 332.981 492.936 348.871 489.472 347.99C488.448 347.729 487.939 347.949 486.821 348.532C485.57 350.066 484.907 350.932 484.298 352.881L483.86 353.478C484.658 355.724 484.921 355.288 484.282 357.011C480.844 354.591 478.505 353.266 474.792 351.235Z"/><path fill="#FEFEFE" fill-opacity="0.035294119" d="M437.243 339.926C439.72 335.485 447.846 335.101 452.114 336.603C448.002 337.06 444.142 337.209 440.583 339.393L440.129 340.332L440.562 340.937L441.316 340.656C442.183 341.728 442.493 342.585 443.763 342.487C447.931 342.166 457.656 341.867 461.503 343.384C461.128 344.252 461.381 343.849 460.728 344.582C463.153 345.186 463.268 345.24 465.705 344.946L465.518 344.103C467.225 343.938 467.146 343.844 468.671 344.569L468.727 344.834L468.585 344.829C468.973 346.5 468.372 347.691 467.059 348.779C457.724 347.831 448.545 348.136 439.135 347.709C438.605 344.263 438.476 343.224 437.243 339.926Z"/><path fill="#FEFEFE" fill-opacity="0.40000001" d="M519.175 310.605C524.525 308.948 530.819 306.625 536.353 305.918C536.81 305.86 541.052 306.45 542.05 306.535C532.835 310.509 539.389 311.498 533.858 318.711C532.295 319.084 533.008 319.188 531.608 318.797L530.071 316.335C529.048 317.542 528.786 318.598 528.236 320.076L527.18 319.818C526.897 319.121 526.816 318.816 526.125 318.427C523.47 316.93 523.153 314.679 520.956 312.283C520.563 312.831 520.486 320.953 519.778 323.425C519.241 322.894 519.689 314.517 519.293 311.475L519.175 310.605Z"/><path fill="#131D3D" fill-opacity="0.98039216" d="M474.903 177.403C475.019 178.669 475.024 181.148 475.654 181.961L476.212 181.207L476.53 184.031C476.27 200.353 476.126 216.677 476.096 233C476.093 240.298 476.515 253.924 476.015 260.854C475.112 259.467 475.447 229.716 475.567 226.663C473.062 230.765 475.956 259.605 474.015 261.824C473.374 255.174 473.941 236.48 473.943 228.82L473.963 199.133C473.973 192.429 473.612 183.767 474.903 177.403Z"/><path fill="#FEFEFE" fill-opacity="0.65882355" d="M493.354 362.389L492.708 363.453L493.178 363.936C492.751 364.656 492.864 364.311 492.743 364.935L493.616 364.355L492.604 364.68L492.602 364.669L493.469 364.292C494.489 365.246 494.033 364.774 494.18 366.855C495.108 365.856 494.613 366 495.636 365.827C496.47 368.783 497.1 370.992 498.199 373.872L498.993 373.704C503.605 369.119 505.139 364.682 504.179 358.356L504.187 358.748C503.724 357.263 502.88 355.232 503.937 353.963L504.469 356.086L504.768 356.038L505.673 353.931C507.52 352.479 510.458 349.833 512.516 349.955C513.593 351.498 513.215 351.304 513.2 353.628L511.395 356.968C509.351 356.188 510.301 356.156 508.455 356.731C505.572 359.418 504.957 362.651 505.207 366.479L505.72 366.716L506.769 366.099C504.281 369.97 502.27 372.484 499.576 376.13L499.218 376.174C498.143 375.166 497.494 374.271 496.086 374.108C494.048 369.632 492.568 367.022 489.899 362.928C491.135 362.686 491.464 362.542 492.515 361.847L493.354 362.389Z"/><path fill="#FEFEFE" fill-opacity="0.47450981" d="M914.575 758.26C914.847 760.531 915.016 762.052 915.034 764.332L915.564 764.999L916.396 763.38C917.662 767.104 916.465 768.385 917.029 771.303C918.94 781.185 915.958 792.035 916.56 801.376L916.398 807.064C916.08 806.003 915.787 799.62 915.661 798.076L915.67 798.723C914.862 796.136 914.824 793.954 914.609 791.26C914.264 781.449 914.309 768.081 914.575 758.26Z"/><path fill="#FEFEFE" fill-opacity="0.13725491" d="M528.236 320.076C528.786 318.598 529.048 317.542 530.071 316.335L531.608 318.797C533.008 319.188 532.295 319.084 533.858 318.711C529.713 325.754 525.266 333.354 520.747 340.135C520.756 337.236 520.9 338.136 518.775 335.723C520.111 334.254 519.945 333.201 520.121 331.12L520.188 330.293L520.692 330.366L520.869 332.972C522.204 328.802 524.748 330.344 525.202 325.632C525.344 324.16 529.298 322.322 528.236 320.076Z"/><path fill="#FEFEFE" fill-opacity="0.74509805" d="M914.609 791.26C914.824 793.954 914.862 796.136 915.67 798.723L915.661 798.076C915.787 799.62 916.08 806.003 916.398 807.064L916.56 801.376C917.612 806.557 917.647 812.785 917.759 818.093C918.185 822.085 916.677 826.552 916.897 831.186C915.297 831.174 916.063 831.353 914.575 830.435C914.478 817.377 914.489 804.318 914.609 791.26Z"/><path fill="#2B1D40" d="M768.541 231.372C766.301 228.937 762.571 231.642 760 229.189L760.071 228.173C763.028 226.038 768.066 227.154 771.432 227.84C772.766 228.112 773.075 229.534 773.534 230.609C771.852 230.537 769.959 230.176 768.659 230.85L768.541 231.372Z"/><path fill="#FEFEFE" fill-opacity="0.45490196" d="M484.298 352.881C489.821 351.218 487.169 362.298 492.75 359.912C493.52 360.89 493.286 360.528 493.715 361.726L493.354 362.389L492.515 361.847C491.464 362.542 491.135 362.686 489.899 362.928C488.575 361.232 485.868 358.63 484.282 357.011C484.921 355.288 484.658 355.724 483.86 353.478L484.298 352.881Z"/><path fill="#2B1D40" d="M781.405 209.077C782.315 209.451 782.96 209.469 783.172 210.161C784.129 213.286 783.047 219.604 781.782 222.473L780.662 221.874C779.204 219.265 780.595 211.997 781.405 209.077Z"/><defs><linearGradient id="gradient_2" gradientUnits="userSpaceOnUse" x1="510.56824" y1="359.83487" x2="505.37384" y2="360.87607"><stop offset="0" stop-color="#FCFEFE" stop-opacity="0.69411767"/><stop offset="1" stop-color="#FEFEFE" stop-opacity="0.78431374"/></linearGradient></defs><path fill="url(#gradient_2)" d="M506.769 366.099L505.72 366.716L505.207 366.479C504.957 362.651 505.572 359.418 508.455 356.731C510.301 356.156 509.351 356.188 511.395 356.968C509.87 360.115 508.437 363.027 506.769 366.099Z"/><path fill="#2B1D40" d="M786.44 229.585C789.381 229.503 795.995 229.681 798.458 231.449C799.054 231.877 798.815 232.311 798.825 233.335C795.579 233.092 790.16 232.941 787.22 231.544C786.532 231.217 786.675 230.669 786.44 229.585Z"/></svg>